<svg width="301" height="63" viewBox="0 0 301 63" fill="none" xmlns="http://www.w3.org/2000/svg">
<path d="M83.627 37.8398C83.627 38.7428 83.4414 39.5902 83.0703 40.3818C82.7116 41.1735 82.223 41.8662 81.6045 42.46C80.9984 43.0537 80.2871 43.5238 79.4707 43.8701C78.6667 44.2041 77.8132 44.3711 76.9102 44.3711H74.999C74.096 44.3711 73.2363 44.2041 72.4199 43.8701C71.6159 43.5238 70.9046 43.0537 70.2861 42.46C69.68 41.8662 69.1914 41.1735 68.8203 40.3818C68.4616 39.5902 68.2822 38.7428 68.2822 37.8398V36.7822L70.6758 36.3926V37.8398C70.6758 38.4336 70.7933 38.9902 71.0283 39.5098C71.2757 40.0169 71.6035 40.4684 72.0117 40.8643C72.4199 41.2477 72.89 41.5508 73.4219 41.7734C73.9661 41.9961 74.5352 42.1074 75.1289 42.1074H76.7988C77.3926 42.1074 77.9554 41.9961 78.4873 41.7734C79.0192 41.5508 79.4893 41.2477 79.8975 40.8643C80.3057 40.4684 80.6273 40.0169 80.8623 39.5098C81.1097 38.9902 81.2334 38.4336 81.2334 37.8398V37.042C81.2334 36.1266 81.054 35.3659 80.6953 34.7598C80.3366 34.1536 79.8604 33.6403 79.2666 33.2197C78.6729 32.7868 77.9987 32.4219 77.2441 32.125C76.502 31.8281 75.735 31.5312 74.9434 31.2344C74.1517 30.9375 73.3786 30.6097 72.624 30.251C71.8818 29.8923 71.2139 29.4469 70.6201 28.915C70.0264 28.3708 69.5501 27.709 69.1914 26.9297C68.8327 26.1504 68.6533 25.1917 68.6533 24.0537V23.5527C68.6533 22.6497 68.8203 21.8024 69.1543 21.0107C69.5007 20.2191 69.9707 19.5264 70.5645 18.9326C71.1582 18.3389 71.8509 17.875 72.6426 17.541C73.4466 17.1947 74.3001 17.0215 75.2031 17.0215H76.9102C77.8132 17.0215 78.6605 17.1947 79.4521 17.541C80.2438 17.875 80.9365 18.3389 81.5303 18.9326C82.124 19.5264 82.5879 20.2191 82.9219 21.0107C83.2682 21.8024 83.4414 22.6497 83.4414 23.5527V24.2393L81.0479 24.6289V23.5527C81.0479 22.959 80.9365 22.4085 80.7139 21.9014C80.4912 21.3818 80.1882 20.9303 79.8047 20.5469C79.4212 20.1634 78.9697 19.8604 78.4502 19.6377C77.943 19.415 77.3926 19.3037 76.7988 19.3037H75.3145C74.7207 19.3037 74.1641 19.415 73.6445 19.6377C73.1374 19.8604 72.6859 20.1634 72.29 20.5469C71.9066 20.9303 71.6035 21.3818 71.3809 21.9014C71.1582 22.4085 71.0469 22.959 71.0469 23.5527V24.0537C71.0469 24.9072 71.2262 25.6247 71.585 26.2061C71.9437 26.7874 72.4199 27.2884 73.0137 27.709C73.6074 28.1172 74.2754 28.4759 75.0176 28.7852C75.7721 29.082 76.5452 29.3913 77.3369 29.7129C78.1286 30.0221 78.8955 30.3685 79.6377 30.752C80.3923 31.123 81.0664 31.5869 81.6602 32.1436C82.2539 32.6878 82.7301 33.3558 83.0889 34.1475C83.4476 34.9391 83.627 35.904 83.627 37.042V37.8398ZM103.369 37.8398C103.369 38.7428 103.196 39.5902 102.85 40.3818C102.516 41.1735 102.052 41.8662 101.458 42.46C100.864 43.0537 100.172 43.5238 99.3799 43.8701C98.5882 44.2041 97.7409 44.3711 96.8379 44.3711H94.9453C94.0423 44.3711 93.1888 44.2041 92.3848 43.8701C91.5931 43.5238 90.9004 43.0537 90.3066 42.46C89.7129 41.8662 89.2428 41.1735 88.8965 40.3818C88.5625 39.5902 88.3955 38.7428 88.3955 37.8398V23.5527C88.3955 22.6497 88.5625 21.8024 88.8965 21.0107C89.2428 20.2191 89.7129 19.5264 90.3066 18.9326C90.9004 18.3389 91.5931 17.875 92.3848 17.541C93.1888 17.1947 94.0423 17.0215 94.9453 17.0215H96.8379C97.7409 17.0215 98.5882 17.1947 99.3799 17.541C100.172 17.875 100.864 18.3389 101.458 18.9326C102.052 19.5264 102.516 20.2191 102.85 21.0107C103.196 21.8024 103.369 22.6497 103.369 23.5527V37.8398ZM100.976 23.5527C100.976 22.959 100.864 22.4085 100.642 21.9014C100.419 21.3818 100.116 20.9303 99.7324 20.5469C99.349 20.1634 98.8975 19.8604 98.3779 19.6377C97.8708 19.415 97.3203 19.3037 96.7266 19.3037H95.0566C94.4629 19.3037 93.9062 19.415 93.3867 19.6377C92.8796 19.8604 92.4281 20.1634 92.0322 20.5469C91.6488 20.9303 91.3457 21.3818 91.123 21.9014C90.9004 22.4085 90.7891 22.959 90.7891 23.5527V37.8398C90.7891 38.4336 90.9004 38.9902 91.123 39.5098C91.3457 40.0169 91.6488 40.4684 92.0322 40.8643C92.4281 41.2477 92.8796 41.5508 93.3867 41.7734C93.9062 41.9961 94.4629 42.1074 95.0566 42.1074H96.7266C97.3203 42.1074 97.8708 41.9961 98.3779 41.7734C98.8975 41.5508 99.349 41.2477 99.7324 40.8643C100.116 40.4684 100.419 40.0169 100.642 39.5098C100.864 38.9902 100.976 38.4336 100.976 37.8398V23.5527ZM122.796 44L111.7 24.6289L111.478 23.4785V44H109.084V17.3926H110.327L121.423 36.7822L121.664 37.9141V17.3926H124.058V44H122.796ZM144.746 44H143.985L142.594 41.8662C142.012 42.6331 141.307 43.2454 140.479 43.7031C139.65 44.1484 138.728 44.3711 137.714 44.3711H136.322C135.419 44.3711 134.566 44.2041 133.762 43.8701C132.97 43.5238 132.277 43.0537 131.684 42.46C131.09 41.8662 130.62 41.1735 130.273 40.3818C129.939 39.5902 129.772 38.7428 129.772 37.8398V23.5527C129.772 22.6497 129.939 21.8024 130.273 21.0107C130.62 20.2191 131.09 19.5264 131.684 18.9326C132.277 18.3389 132.97 17.875 133.762 17.541C134.566 17.1947 135.419 17.0215 136.322 17.0215H138.215C139.118 17.0215 139.965 17.1947 140.757 17.541C141.549 17.875 142.241 18.3389 142.835 18.9326C143.429 19.5264 143.893 20.2191 144.227 21.0107C144.573 21.8024 144.746 22.6497 144.746 23.5527V24.6289L142.353 25V23.5527C142.353 22.959 142.241 22.4085 142.019 21.9014C141.796 21.3818 141.493 20.9303 141.109 20.5469C140.726 20.1634 140.274 19.8604 139.755 19.6377C139.248 19.415 138.697 19.3037 138.104 19.3037H136.434C135.84 19.3037 135.283 19.415 134.764 19.6377C134.257 19.8604 133.805 20.1634 133.409 20.5469C133.026 20.9303 132.723 21.3818 132.5 21.9014C132.277 22.4085 132.166 22.959 132.166 23.5527V37.8398C132.166 38.4336 132.277 38.9902 132.5 39.5098C132.723 40.0169 133.026 40.4684 133.409 40.8643C133.805 41.2477 134.257 41.5508 134.764 41.7734C135.283 41.9961 135.84 42.1074 136.434 42.1074H138.104C138.697 42.1074 139.248 41.9961 139.755 41.7734C140.274 41.5508 140.726 41.2477 141.109 40.8643C141.493 40.4684 141.796 40.0169 142.019 39.5098C142.241 38.9902 142.353 38.4336 142.353 37.8398V32.292H138.104V30.0098H144.746V44Z" fill="black"/>
<path d="M165.045 37.8398C165.045 38.7428 164.859 39.5902 164.488 40.3818C164.13 41.1735 163.641 41.8662 163.022 42.46C162.416 43.0537 161.705 43.5238 160.889 43.8701C160.085 44.2041 159.231 44.3711 158.328 44.3711H156.417C155.514 44.3711 154.654 44.2041 153.838 43.8701C153.034 43.5238 152.323 43.0537 151.704 42.46C151.098 41.8662 150.609 41.1735 150.238 40.3818C149.88 39.5902 149.7 38.7428 149.7 37.8398V36.7822L152.094 36.3926V37.8398C152.094 38.4336 152.211 38.9902 152.446 39.5098C152.694 40.0169 153.021 40.4684 153.43 40.8643C153.838 41.2477 154.308 41.5508 154.84 41.7734C155.384 41.9961 155.953 42.1074 156.547 42.1074H158.217C158.811 42.1074 159.373 41.9961 159.905 41.7734C160.437 41.5508 160.907 41.2477 161.315 40.8643C161.724 40.4684 162.045 40.0169 162.28 39.5098C162.528 38.9902 162.651 38.4336 162.651 37.8398V37.042C162.651 36.1266 162.472 35.3659 162.113 34.7598C161.755 34.1536 161.278 33.6403 160.685 33.2197C160.091 32.7868 159.417 32.4219 158.662 32.125C157.92 31.8281 157.153 31.5312 156.361 31.2344C155.57 30.9375 154.797 30.6097 154.042 30.251C153.3 29.8923 152.632 29.4469 152.038 28.915C151.444 28.3708 150.968 27.709 150.609 26.9297C150.251 26.1504 150.071 25.1917 150.071 24.0537V23.5527C150.071 22.6497 150.238 21.8024 150.572 21.0107C150.919 20.2191 151.389 19.5264 151.982 18.9326C152.576 18.3389 153.269 17.875 154.061 17.541C154.865 17.1947 155.718 17.0215 156.621 17.0215H158.328C159.231 17.0215 160.078 17.1947 160.87 17.541C161.662 17.875 162.354 18.3389 162.948 18.9326C163.542 19.5264 164.006 20.2191 164.34 21.0107C164.686 21.8024 164.859 22.6497 164.859 23.5527V24.2393L162.466 24.6289V23.5527C162.466 22.959 162.354 22.4085 162.132 21.9014C161.909 21.3818 161.606 20.9303 161.223 20.5469C160.839 20.1634 160.388 19.8604 159.868 19.6377C159.361 19.415 158.811 19.3037 158.217 19.3037H156.732C156.139 19.3037 155.582 19.415 155.062 19.6377C154.555 19.8604 154.104 20.1634 153.708 20.5469C153.325 20.9303 153.021 21.3818 152.799 21.9014C152.576 22.4085 152.465 22.959 152.465 23.5527V24.0537C152.465 24.9072 152.644 25.6247 153.003 26.2061C153.362 26.7874 153.838 27.2884 154.432 27.709C155.025 28.1172 155.693 28.4759 156.436 28.7852C157.19 29.082 157.963 29.3913 158.755 29.7129C159.547 30.0221 160.313 30.3685 161.056 30.752C161.81 31.123 162.484 31.5869 163.078 32.1436C163.672 32.6878 164.148 33.3558 164.507 34.1475C164.866 34.9391 165.045 35.904 165.045 37.042V37.8398ZM184.787 37.8398C184.787 38.7428 184.614 39.5902 184.268 40.3818C183.934 41.1735 183.47 41.8662 182.876 42.46C182.282 43.0537 181.59 43.5238 180.798 43.8701C180.006 44.2041 179.159 44.3711 178.256 44.3711H176.363C175.46 44.3711 174.607 44.2041 173.803 43.8701C173.011 43.5238 172.318 43.0537 171.725 42.46C171.131 41.8662 170.661 41.1735 170.314 40.3818C169.98 39.5902 169.813 38.7428 169.813 37.8398V23.5527C169.813 22.6497 169.98 21.8024 170.314 21.0107C170.661 20.2191 171.131 19.5264 171.725 18.9326C172.318 18.3389 173.011 17.875 173.803 17.541C174.607 17.1947 175.46 17.0215 176.363 17.0215H178.256C179.159 17.0215 180.006 17.1947 180.798 17.541C181.59 17.875 182.282 18.3389 182.876 18.9326C183.47 19.5264 183.934 20.2191 184.268 21.0107C184.614 21.8024 184.787 22.6497 184.787 23.5527V24.6289L182.394 25V23.5527C182.394 22.959 182.282 22.4085 182.06 21.9014C181.837 21.3818 181.534 20.9303 181.15 20.5469C180.767 20.1634 180.315 19.8604 179.796 19.6377C179.289 19.415 178.738 19.3037 178.145 19.3037H176.475C175.881 19.3037 175.324 19.415 174.805 19.6377C174.298 19.8604 173.846 20.1634 173.45 20.5469C173.067 20.9303 172.764 21.3818 172.541 21.9014C172.318 22.4085 172.207 22.959 172.207 23.5527V37.8398C172.207 38.4336 172.318 38.9902 172.541 39.5098C172.764 40.0169 173.067 40.4684 173.45 40.8643C173.846 41.2477 174.298 41.5508 174.805 41.7734C175.324 41.9961 175.881 42.1074 176.475 42.1074H178.145C178.738 42.1074 179.289 41.9961 179.796 41.7734C180.315 41.5508 180.767 41.2477 181.15 40.8643C181.534 40.4684 181.837 40.0169 182.06 39.5098C182.282 38.9902 182.394 38.4336 182.394 37.8398V36.3926L184.787 36.7822V37.8398ZM202.637 44L195.419 32.6445H192.135V44H189.741V17.3926H198.184C199.087 17.3926 199.934 17.5658 200.726 17.9121C201.517 18.2461 202.21 18.71 202.804 19.3037C203.397 19.8975 203.861 20.5964 204.195 21.4004C204.542 22.1921 204.715 23.0394 204.715 23.9424V26.0947C204.715 26.9977 204.542 27.8512 204.195 28.6553C203.861 29.4469 203.397 30.1396 202.804 30.7334C202.21 31.3271 201.517 31.7972 200.726 32.1436C199.934 32.4775 199.087 32.6445 198.184 32.6445L205.401 44H202.637ZM202.321 23.9424C202.321 23.3486 202.21 22.7982 201.987 22.291C201.765 21.7715 201.462 21.32 201.078 20.9365C200.695 20.5407 200.243 20.2314 199.724 20.0088C199.216 19.7861 198.666 19.6748 198.072 19.6748H192.135V30.3623H198.072C198.666 30.3623 199.216 30.251 199.724 30.0283C200.243 29.8057 200.695 29.5026 201.078 29.1191C201.462 28.7233 201.765 28.2718 201.987 27.7646C202.21 27.2451 202.321 26.6885 202.321 26.0947V23.9424ZM224.568 37.8398C224.568 38.7428 224.395 39.5902 224.049 40.3818C223.715 41.1735 223.251 41.8662 222.657 42.46C222.063 43.0537 221.371 43.5238 220.579 43.8701C219.787 44.2041 218.94 44.3711 218.037 44.3711H216.145C215.242 44.3711 214.388 44.2041 213.584 43.8701C212.792 43.5238 212.1 43.0537 211.506 42.46C210.912 41.8662 210.442 41.1735 210.096 40.3818C209.762 39.5902 209.595 38.7428 209.595 37.8398V23.5527C209.595 22.6497 209.762 21.8024 210.096 21.0107C210.442 20.2191 210.912 19.5264 211.506 18.9326C212.1 18.3389 212.792 17.875 213.584 17.541C214.388 17.1947 215.242 17.0215 216.145 17.0215H218.037C218.94 17.0215 219.787 17.1947 220.579 17.541C221.371 17.875 222.063 18.3389 222.657 18.9326C223.251 19.5264 223.715 20.2191 224.049 21.0107C224.395 21.8024 224.568 22.6497 224.568 23.5527V37.8398ZM222.175 23.5527C222.175 22.959 222.063 22.4085 221.841 21.9014C221.618 21.3818 221.315 20.9303 220.932 20.5469C220.548 20.1634 220.097 19.8604 219.577 19.6377C219.07 19.415 218.52 19.3037 217.926 19.3037H216.256C215.662 19.3037 215.105 19.415 214.586 19.6377C214.079 19.8604 213.627 20.1634 213.231 20.5469C212.848 20.9303 212.545 21.3818 212.322 21.9014C212.1 22.4085 211.988 22.959 211.988 23.5527V37.8398C211.988 38.4336 212.1 38.9902 212.322 39.5098C212.545 40.0169 212.848 40.4684 213.231 40.8643C213.627 41.2477 214.079 41.5508 214.586 41.7734C215.105 41.9961 215.662 42.1074 216.256 42.1074H217.926C218.52 42.1074 219.07 41.9961 219.577 41.7734C220.097 41.5508 220.548 41.2477 220.932 40.8643C221.315 40.4684 221.618 40.0169 221.841 39.5098C222.063 38.9902 222.175 38.4336 222.175 37.8398V23.5527ZM229.894 44V17.3926H232.287V41.7178H242.474V44H229.894ZM245.888 44V17.3926H248.281V41.7178H258.468V44H245.888ZM262.271 44V17.3926H277.245V19.6748H264.665V29.5645H274.852V31.8467H264.665V41.7178H277.245V44H262.271ZM294.334 44L287.116 32.6445H283.832V44H281.438V17.3926H289.881C290.784 17.3926 291.631 17.5658 292.423 17.9121C293.215 18.2461 293.907 18.71 294.501 19.3037C295.095 19.8975 295.559 20.5964 295.893 21.4004C296.239 22.1921 296.412 23.0394 296.412 23.9424V26.0947C296.412 26.9977 296.239 27.8512 295.893 28.6553C295.559 29.4469 295.095 30.1396 294.501 30.7334C293.907 31.3271 293.215 31.7972 292.423 32.1436C291.631 32.4775 290.784 32.6445 289.881 32.6445L297.099 44H294.334ZM294.019 23.9424C294.019 23.3486 293.907 22.7982 293.685 22.291C293.462 21.7715 293.159 21.32 292.775 20.9365C292.392 20.5407 291.94 20.2314 291.421 20.0088C290.914 19.7861 290.363 19.6748 289.77 19.6748H283.832V30.3623H289.77C290.363 30.3623 290.914 30.251 291.421 30.0283C291.94 29.8057 292.392 29.5026 292.775 29.1191C293.159 28.7233 293.462 28.2718 293.685 27.7646C293.907 27.2451 294.019 26.6885 294.019 26.0947V23.9424Z" fill="#9B51E0"/>
<g filter="url(#filter0_d)">
<ellipse cx="29.4215" cy="30.5" rx="25.4215" ry="25.5" fill="#BB6BD9"/>
<ellipse cx="29.4215" cy="30.5" rx="25.4215" ry="25.5" fill="url(#paint0_linear)"/>
<path d="M53.3431 30.5C53.3431 43.7592 42.6287 54.5 29.4215 54.5C16.2144 54.5 5.5 43.7592 5.5 30.5C5.5 17.2408 16.2144 6.5 29.4215 6.5C42.6287 6.5 53.3431 17.2408 53.3431 30.5Z" stroke="#F2F2F2" stroke-width="3"/>
</g>
<path d="M34.2551 25.0674C35.899 24.074 36.0589 18.5625 32.4872 15.8429C28.9156 13.1233 24.1093 15.924 24.5098 18.8579C24.9104 21.7917 33.0725 33.9297 33.0725 33.9297M33.0725 33.9297C35.4931 36.9276 36.8405 42.1287 34.5227 44.5504C32.2048 46.9721 24.9872 49.0707 23.9872 40.1307C22.9873 31.1906 33.0725 33.9297 33.0725 33.9297Z" stroke="white" stroke-width="3"/>
<defs>
<filter id="filter0_d" x="0" y="2" width="60.8431" height="61" filterUnits="userSpaceOnUse" color-interpolation-filters="sRGB">
<feFlood flood-opacity="0" result="BackgroundImageFix"/>
<feColorMatrix in="SourceAlpha" type="matrix" values="0 0 0 0 0 0 0 0 0 0 0 0 0 0 0 0 0 0 127 0"/>
<feOffset dx="1" dy="2"/>
<feGaussianBlur stdDeviation="2.5"/>
<feColorMatrix type="matrix" values="0 0 0 0 0 0 0 0 0 0 0 0 0 0 0 0 0 0 0.25 0"/>
<feBlend mode="normal" in2="BackgroundImageFix" result="effect1_dropShadow"/>
<feBlend mode="normal" in="SourceGraphic" in2="effect1_dropShadow" result="shape"/>
</filter>
<linearGradient id="paint0_linear" x1="9.23385" y1="8.3" x2="54.9804" y2="52.8591" gradientUnits="userSpaceOnUse">
<stop stop-color="#B46DCF"/>
<stop offset="1" stop-color="#651882"/>
</linearGradient>
</defs>
</svg>
