<svg width="326" height="67" viewBox="0 0 326 67" fill="none" xmlns="http://www.w3.org/2000/svg">
<path d="M93.3076 39.8398C93.3076 40.7428 93.1221 41.5902 92.751 42.3818C92.3923 43.1735 91.9036 43.8662 91.2852 44.46C90.679 45.0537 89.9678 45.5238 89.1514 45.8701C88.3473 46.2041 87.4938 46.3711 86.5908 46.3711H84.6797C83.7767 46.3711 82.917 46.2041 82.1006 45.8701C81.2965 45.5238 80.5853 45.0537 79.9668 44.46C79.3607 43.8662 78.8721 43.1735 78.501 42.3818C78.1423 41.5902 77.9629 40.7428 77.9629 39.8398V38.7822L80.3564 38.3926V39.8398C80.3564 40.4336 80.474 40.9902 80.709 41.5098C80.9564 42.0169 81.2842 42.4684 81.6924 42.8643C82.1006 43.2477 82.5706 43.5508 83.1025 43.7734C83.6468 43.9961 84.2158 44.1074 84.8096 44.1074H86.4795C87.0732 44.1074 87.6361 43.9961 88.168 43.7734C88.6999 43.5508 89.1699 43.2477 89.5781 42.8643C89.9863 42.4684 90.3079 42.0169 90.543 41.5098C90.7904 40.9902 90.9141 40.4336 90.9141 39.8398V39.042C90.9141 38.1266 90.7347 37.3659 90.376 36.7598C90.0173 36.1536 89.541 35.6403 88.9473 35.2197C88.3535 34.7868 87.6794 34.4219 86.9248 34.125C86.1826 33.8281 85.4157 33.5312 84.624 33.2344C83.8324 32.9375 83.0592 32.6097 82.3047 32.251C81.5625 31.8923 80.8945 31.4469 80.3008 30.915C79.707 30.3708 79.2308 29.709 78.8721 28.9297C78.5133 28.1504 78.334 27.1917 78.334 26.0537V25.5527C78.334 24.6497 78.501 23.8024 78.835 23.0107C79.1813 22.2191 79.6514 21.5264 80.2451 20.9326C80.8389 20.3389 81.5316 19.875 82.3232 19.541C83.1273 19.1947 83.9808 19.0215 84.8838 19.0215H86.5908C87.4938 19.0215 88.3411 19.1947 89.1328 19.541C89.9245 19.875 90.6172 20.3389 91.2109 20.9326C91.8047 21.5264 92.2686 22.2191 92.6025 23.0107C92.9489 23.8024 93.1221 24.6497 93.1221 25.5527V26.2393L90.7285 26.6289V25.5527C90.7285 24.959 90.6172 24.4085 90.3945 23.9014C90.1719 23.3818 89.8688 22.9303 89.4854 22.5469C89.1019 22.1634 88.6504 21.8604 88.1309 21.6377C87.6237 21.415 87.0732 21.3037 86.4795 21.3037H84.9951C84.4014 21.3037 83.8447 21.415 83.3252 21.6377C82.818 21.8604 82.3665 22.1634 81.9707 22.5469C81.5872 22.9303 81.2842 23.3818 81.0615 23.9014C80.8389 24.4085 80.7275 24.959 80.7275 25.5527V26.0537C80.7275 26.9072 80.9069 27.6247 81.2656 28.2061C81.6243 28.7874 82.1006 29.2884 82.6943 29.709C83.2881 30.1172 83.9561 30.4759 84.6982 30.7852C85.4528 31.082 86.2259 31.3913 87.0176 31.7129C87.8092 32.0221 88.5762 32.3685 89.3184 32.752C90.0729 33.123 90.7471 33.5869 91.3408 34.1436C91.9346 34.6878 92.4108 35.3558 92.7695 36.1475C93.1283 36.9391 93.3076 37.904 93.3076 39.042V39.8398ZM113.05 39.8398C113.05 40.7428 112.877 41.5902 112.53 42.3818C112.196 43.1735 111.732 43.8662 111.139 44.46C110.545 45.0537 109.852 45.5238 109.061 45.8701C108.269 46.2041 107.422 46.3711 106.519 46.3711H104.626C103.723 46.3711 102.869 46.2041 102.065 45.8701C101.274 45.5238 100.581 45.0537 99.9873 44.46C99.3936 43.8662 98.9235 43.1735 98.5771 42.3818C98.2432 41.5902 98.0762 40.7428 98.0762 39.8398V25.5527C98.0762 24.6497 98.2432 23.8024 98.5771 23.0107C98.9235 22.2191 99.3936 21.5264 99.9873 20.9326C100.581 20.3389 101.274 19.875 102.065 19.541C102.869 19.1947 103.723 19.0215 104.626 19.0215H106.519C107.422 19.0215 108.269 19.1947 109.061 19.541C109.852 19.875 110.545 20.3389 111.139 20.9326C111.732 21.5264 112.196 22.2191 112.53 23.0107C112.877 23.8024 113.05 24.6497 113.05 25.5527V39.8398ZM110.656 25.5527C110.656 24.959 110.545 24.4085 110.322 23.9014C110.1 23.3818 109.797 22.9303 109.413 22.5469C109.03 22.1634 108.578 21.8604 108.059 21.6377C107.551 21.415 107.001 21.3037 106.407 21.3037H104.737C104.144 21.3037 103.587 21.415 103.067 21.6377C102.56 21.8604 102.109 22.1634 101.713 22.5469C101.329 22.9303 101.026 23.3818 100.804 23.9014C100.581 24.4085 100.47 24.959 100.47 25.5527V39.8398C100.47 40.4336 100.581 40.9902 100.804 41.5098C101.026 42.0169 101.329 42.4684 101.713 42.8643C102.109 43.2477 102.56 43.5508 103.067 43.7734C103.587 43.9961 104.144 44.1074 104.737 44.1074H106.407C107.001 44.1074 107.551 43.9961 108.059 43.7734C108.578 43.5508 109.03 43.2477 109.413 42.8643C109.797 42.4684 110.1 42.0169 110.322 41.5098C110.545 40.9902 110.656 40.4336 110.656 39.8398V25.5527ZM132.477 46L121.381 26.6289L121.158 25.4785V46H118.765V19.3926H120.008L131.104 38.7822L131.345 39.9141V19.3926H133.738V46H132.477ZM154.427 46H153.666L152.274 43.8662C151.693 44.6331 150.988 45.2454 150.159 45.7031C149.33 46.1484 148.409 46.3711 147.395 46.3711H146.003C145.1 46.3711 144.246 46.2041 143.442 45.8701C142.651 45.5238 141.958 45.0537 141.364 44.46C140.771 43.8662 140.3 43.1735 139.954 42.3818C139.62 41.5902 139.453 40.7428 139.453 39.8398V25.5527C139.453 24.6497 139.62 23.8024 139.954 23.0107C140.3 22.2191 140.771 21.5264 141.364 20.9326C141.958 20.3389 142.651 19.875 143.442 19.541C144.246 19.1947 145.1 19.0215 146.003 19.0215H147.896C148.799 19.0215 149.646 19.1947 150.438 19.541C151.229 19.875 151.922 20.3389 152.516 20.9326C153.109 21.5264 153.573 22.2191 153.907 23.0107C154.254 23.8024 154.427 24.6497 154.427 25.5527V26.6289L152.033 27V25.5527C152.033 24.959 151.922 24.4085 151.699 23.9014C151.477 23.3818 151.174 22.9303 150.79 22.5469C150.407 22.1634 149.955 21.8604 149.436 21.6377C148.928 21.415 148.378 21.3037 147.784 21.3037H146.114C145.521 21.3037 144.964 21.415 144.444 21.6377C143.937 21.8604 143.486 22.1634 143.09 22.5469C142.706 22.9303 142.403 23.3818 142.181 23.9014C141.958 24.4085 141.847 24.959 141.847 25.5527V39.8398C141.847 40.4336 141.958 40.9902 142.181 41.5098C142.403 42.0169 142.706 42.4684 143.09 42.8643C143.486 43.2477 143.937 43.5508 144.444 43.7734C144.964 43.9961 145.521 44.1074 146.114 44.1074H147.784C148.378 44.1074 148.928 43.9961 149.436 43.7734C149.955 43.5508 150.407 43.2477 150.79 42.8643C151.174 42.4684 151.477 42.0169 151.699 41.5098C151.922 40.9902 152.033 40.4336 152.033 39.8398V34.292H147.784V32.0098H154.427V46Z" fill="black"/>
<path d="M174.726 39.8398C174.726 40.7428 174.54 41.5902 174.169 42.3818C173.81 43.1735 173.322 43.8662 172.703 44.46C172.097 45.0537 171.386 45.5238 170.569 45.8701C169.765 46.2041 168.912 46.3711 168.009 46.3711H166.098C165.195 46.3711 164.335 46.2041 163.519 45.8701C162.715 45.5238 162.003 45.0537 161.385 44.46C160.779 43.8662 160.29 43.1735 159.919 42.3818C159.56 41.5902 159.381 40.7428 159.381 39.8398V38.7822L161.774 38.3926V39.8398C161.774 40.4336 161.892 40.9902 162.127 41.5098C162.374 42.0169 162.702 42.4684 163.11 42.8643C163.519 43.2477 163.989 43.5508 164.521 43.7734C165.065 43.9961 165.634 44.1074 166.228 44.1074H167.897C168.491 44.1074 169.054 43.9961 169.586 43.7734C170.118 43.5508 170.588 43.2477 170.996 42.8643C171.404 42.4684 171.726 42.0169 171.961 41.5098C172.208 40.9902 172.332 40.4336 172.332 39.8398V39.042C172.332 38.1266 172.153 37.3659 171.794 36.7598C171.435 36.1536 170.959 35.6403 170.365 35.2197C169.771 34.7868 169.097 34.4219 168.343 34.125C167.601 33.8281 166.834 33.5312 166.042 33.2344C165.25 32.9375 164.477 32.6097 163.723 32.251C162.98 31.8923 162.312 31.4469 161.719 30.915C161.125 30.3708 160.649 29.709 160.29 28.9297C159.931 28.1504 159.752 27.1917 159.752 26.0537V25.5527C159.752 24.6497 159.919 23.8024 160.253 23.0107C160.599 22.2191 161.069 21.5264 161.663 20.9326C162.257 20.3389 162.95 19.875 163.741 19.541C164.545 19.1947 165.399 19.0215 166.302 19.0215H168.009C168.912 19.0215 169.759 19.1947 170.551 19.541C171.342 19.875 172.035 20.3389 172.629 20.9326C173.223 21.5264 173.687 22.2191 174.021 23.0107C174.367 23.8024 174.54 24.6497 174.54 25.5527V26.2393L172.146 26.6289V25.5527C172.146 24.959 172.035 24.4085 171.812 23.9014C171.59 23.3818 171.287 22.9303 170.903 22.5469C170.52 22.1634 170.068 21.8604 169.549 21.6377C169.042 21.415 168.491 21.3037 167.897 21.3037H166.413C165.819 21.3037 165.263 21.415 164.743 21.6377C164.236 21.8604 163.785 22.1634 163.389 22.5469C163.005 22.9303 162.702 23.3818 162.479 23.9014C162.257 24.4085 162.146 24.959 162.146 25.5527V26.0537C162.146 26.9072 162.325 27.6247 162.684 28.2061C163.042 28.7874 163.519 29.2884 164.112 29.709C164.706 30.1172 165.374 30.4759 166.116 30.7852C166.871 31.082 167.644 31.3913 168.436 31.7129C169.227 32.0221 169.994 32.3685 170.736 32.752C171.491 33.123 172.165 33.5869 172.759 34.1436C173.353 34.6878 173.829 35.3558 174.188 36.1475C174.546 36.9391 174.726 37.904 174.726 39.042V39.8398ZM194.468 39.8398C194.468 40.7428 194.295 41.5902 193.948 42.3818C193.614 43.1735 193.15 43.8662 192.557 44.46C191.963 45.0537 191.27 45.5238 190.479 45.8701C189.687 46.2041 188.84 46.3711 187.937 46.3711H186.044C185.141 46.3711 184.287 46.2041 183.483 45.8701C182.692 45.5238 181.999 45.0537 181.405 44.46C180.812 43.8662 180.341 43.1735 179.995 42.3818C179.661 41.5902 179.494 40.7428 179.494 39.8398V25.5527C179.494 24.6497 179.661 23.8024 179.995 23.0107C180.341 22.2191 180.812 21.5264 181.405 20.9326C181.999 20.3389 182.692 19.875 183.483 19.541C184.287 19.1947 185.141 19.0215 186.044 19.0215H187.937C188.84 19.0215 189.687 19.1947 190.479 19.541C191.27 19.875 191.963 20.3389 192.557 20.9326C193.15 21.5264 193.614 22.2191 193.948 23.0107C194.295 23.8024 194.468 24.6497 194.468 25.5527V26.6289L192.074 27V25.5527C192.074 24.959 191.963 24.4085 191.74 23.9014C191.518 23.3818 191.215 22.9303 190.831 22.5469C190.448 22.1634 189.996 21.8604 189.477 21.6377C188.969 21.415 188.419 21.3037 187.825 21.3037H186.155C185.562 21.3037 185.005 21.415 184.485 21.6377C183.978 21.8604 183.527 22.1634 183.131 22.5469C182.747 22.9303 182.444 23.3818 182.222 23.9014C181.999 24.4085 181.888 24.959 181.888 25.5527V39.8398C181.888 40.4336 181.999 40.9902 182.222 41.5098C182.444 42.0169 182.747 42.4684 183.131 42.8643C183.527 43.2477 183.978 43.5508 184.485 43.7734C185.005 43.9961 185.562 44.1074 186.155 44.1074H187.825C188.419 44.1074 188.969 43.9961 189.477 43.7734C189.996 43.5508 190.448 43.2477 190.831 42.8643C191.215 42.4684 191.518 42.0169 191.74 41.5098C191.963 40.9902 192.074 40.4336 192.074 39.8398V38.3926L194.468 38.7822V39.8398ZM212.317 46L205.1 34.6445H201.815V46H199.422V19.3926H207.864C208.767 19.3926 209.615 19.5658 210.406 19.9121C211.198 20.2461 211.891 20.71 212.484 21.3037C213.078 21.8975 213.542 22.5964 213.876 23.4004C214.222 24.1921 214.396 25.0394 214.396 25.9424V28.0947C214.396 28.9977 214.222 29.8512 213.876 30.6553C213.542 31.4469 213.078 32.1396 212.484 32.7334C211.891 33.3271 211.198 33.7972 210.406 34.1436C209.615 34.4775 208.767 34.6445 207.864 34.6445L215.082 46H212.317ZM212.002 25.9424C212.002 25.3486 211.891 24.7982 211.668 24.291C211.445 23.7715 211.142 23.32 210.759 22.9365C210.375 22.5407 209.924 22.2314 209.404 22.0088C208.897 21.7861 208.347 21.6748 207.753 21.6748H201.815V32.3623H207.753C208.347 32.3623 208.897 32.251 209.404 32.0283C209.924 31.8057 210.375 31.5026 210.759 31.1191C211.142 30.7233 211.445 30.2718 211.668 29.7646C211.891 29.2451 212.002 28.6885 212.002 28.0947V25.9424ZM234.249 39.8398C234.249 40.7428 234.076 41.5902 233.729 42.3818C233.396 43.1735 232.932 43.8662 232.338 44.46C231.744 45.0537 231.051 45.5238 230.26 45.8701C229.468 46.2041 228.621 46.3711 227.718 46.3711H225.825C224.922 46.3711 224.069 46.2041 223.265 45.8701C222.473 45.5238 221.78 45.0537 221.187 44.46C220.593 43.8662 220.123 43.1735 219.776 42.3818C219.442 41.5902 219.275 40.7428 219.275 39.8398V25.5527C219.275 24.6497 219.442 23.8024 219.776 23.0107C220.123 22.2191 220.593 21.5264 221.187 20.9326C221.78 20.3389 222.473 19.875 223.265 19.541C224.069 19.1947 224.922 19.0215 225.825 19.0215H227.718C228.621 19.0215 229.468 19.1947 230.26 19.541C231.051 19.875 231.744 20.3389 232.338 20.9326C232.932 21.5264 233.396 22.2191 233.729 23.0107C234.076 23.8024 234.249 24.6497 234.249 25.5527V39.8398ZM231.855 25.5527C231.855 24.959 231.744 24.4085 231.521 23.9014C231.299 23.3818 230.996 22.9303 230.612 22.5469C230.229 22.1634 229.777 21.8604 229.258 21.6377C228.751 21.415 228.2 21.3037 227.606 21.3037H225.937C225.343 21.3037 224.786 21.415 224.267 21.6377C223.759 21.8604 223.308 22.1634 222.912 22.5469C222.529 22.9303 222.226 23.3818 222.003 23.9014C221.78 24.4085 221.669 24.959 221.669 25.5527V39.8398C221.669 40.4336 221.78 40.9902 222.003 41.5098C222.226 42.0169 222.529 42.4684 222.912 42.8643C223.308 43.2477 223.759 43.5508 224.267 43.7734C224.786 43.9961 225.343 44.1074 225.937 44.1074H227.606C228.2 44.1074 228.751 43.9961 229.258 43.7734C229.777 43.5508 230.229 43.2477 230.612 42.8643C230.996 42.4684 231.299 42.0169 231.521 41.5098C231.744 40.9902 231.855 40.4336 231.855 39.8398V25.5527ZM239.574 46V19.3926H241.968V43.7178H252.154V46H239.574ZM255.568 46V19.3926H257.962V43.7178H268.148V46H255.568ZM271.952 46V19.3926H286.926V21.6748H274.346V31.5645H284.532V33.8467H274.346V43.7178H286.926V46H271.952ZM304.015 46L296.797 34.6445H293.513V46H291.119V19.3926H299.562C300.465 19.3926 301.312 19.5658 302.104 19.9121C302.895 20.2461 303.588 20.71 304.182 21.3037C304.775 21.8975 305.239 22.5964 305.573 23.4004C305.92 24.1921 306.093 25.0394 306.093 25.9424V28.0947C306.093 28.9977 305.92 29.8512 305.573 30.6553C305.239 31.4469 304.775 32.1396 304.182 32.7334C303.588 33.3271 302.895 33.7972 302.104 34.1436C301.312 34.4775 300.465 34.6445 299.562 34.6445L306.779 46H304.015ZM303.699 25.9424C303.699 25.3486 303.588 24.7982 303.365 24.291C303.143 23.7715 302.84 23.32 302.456 22.9365C302.073 22.5407 301.621 22.2314 301.102 22.0088C300.594 21.7861 300.044 21.6748 299.45 21.6748H293.513V32.3623H299.45C300.044 32.3623 300.594 32.251 301.102 32.0283C301.621 31.8057 302.073 31.5026 302.456 31.1191C302.84 30.7233 303.143 30.2718 303.365 29.7646C303.588 29.2451 303.699 28.6885 303.699 28.0947V25.9424Z" fill="#9B51E0"/>
<g filter="url(#filter0_d)">
<circle cx="32.5" cy="31.5" r="28.5" fill="#BB6BD9"/>
<circle cx="32.5" cy="31.5" r="28.5" fill="url(#paint0_linear)"/>
<circle cx="32.5" cy="31.5" r="27" stroke="#F2F2F2" stroke-width="3"/>
</g>
<path d="M37.9189 25.4283C39.7618 24.318 39.9411 18.1581 35.9369 15.1185C31.9328 12.0789 26.5444 15.2092 26.9935 18.4882C27.4426 21.7672 36.5931 35.3331 36.5931 35.3331M36.5931 35.3331C39.3069 38.6838 40.8174 44.4968 38.2189 47.2034C35.6203 49.91 27.5286 52.2555 26.4076 42.2637C25.2866 32.2719 36.5931 35.3331 36.5931 35.3331Z" stroke="white" stroke-width="3"/>
<defs>
<filter id="filter0_d" x="0" y="0" width="67" height="67" filterUnits="userSpaceOnUse" color-interpolation-filters="sRGB">
<feFlood flood-opacity="0" result="BackgroundImageFix"/>
<feColorMatrix in="SourceAlpha" type="matrix" values="0 0 0 0 0 0 0 0 0 0 0 0 0 0 0 0 0 0 127 0"/>
<feOffset dx="1" dy="2"/>
<feGaussianBlur stdDeviation="2.5"/>
<feColorMatrix type="matrix" values="0 0 0 0 0 0 0 0 0 0 0 0 0 0 0 0 0 0 0.25 0"/>
<feBlend mode="normal" in2="BackgroundImageFix" result="effect1_dropShadow"/>
<feBlend mode="normal" in="SourceGraphic" in2="effect1_dropShadow" result="shape"/>
</filter>
<linearGradient id="paint0_linear" x1="9.86765" y1="6.68823" x2="61" y2="56.6471" gradientUnits="userSpaceOnUse">
<stop stop-color="#B46DCF"/>
<stop offset="1" stop-color="#651882"/>
</linearGradient>
</defs>
</svg>
